<svg width="450" height="154" viewBox="0 0 450 154" fill="none" xmlns="http://www.w3.org/2000/svg">
<path d="M73.32 123H44.07V115.59H54.08V88.68C54.08 82.44 52.8233 78.0633 50.31 75.55C47.7967 72.95 44.59 71.65 40.69 71.65C35.49 71.65 31.2867 73.3833 28.08 76.85C24.96 80.23 23.3133 84.13 23.14 88.55V115.59H33.28V123H3.9V115.59H14.04V72.56H3.64V65.15H23.14V75.42C27.3 67.7933 34.06 63.98 43.42 63.98C49.0533 63.98 53.7767 65.7133 57.59 69.18C61.4033 72.6467 63.31 78.2367 63.31 85.95V115.59H73.32V123ZM131.071 106.36C130.291 111.3 127.821 115.547 123.661 119.1C119.501 122.567 113.868 124.3 106.761 124.3C98.6148 124.3 92.0282 121.743 87.0015 116.63C81.9748 111.517 79.4615 104.28 79.4615 94.92C79.4615 85.9067 81.8448 78.4967 86.6115 72.69C91.3782 66.8833 97.8348 63.98 105.981 63.98C113.955 63.98 120.021 66.4933 124.181 71.52C128.341 76.5467 130.465 82.4833 130.551 89.33C130.551 91.5833 130.291 93.88 129.771 96.22H89.0815C89.6015 109.74 95.7115 116.5 107.411 116.5C112.005 116.5 115.601 115.417 118.201 113.25C120.801 111.083 122.535 108.223 123.401 104.67L131.071 106.36ZM120.931 89.46C121.365 85.1267 120.325 81.0533 117.811 77.24C115.385 73.4267 111.355 71.52 105.721 71.52C100.348 71.52 96.4048 73.2967 93.8915 76.85C91.3782 80.4033 89.8182 84.6067 89.2115 89.46H120.931ZM197.466 94.01C197.466 102.763 194.866 110 189.666 115.72C184.466 121.44 177.403 124.3 168.476 124.3C159.723 124.3 152.833 121.527 147.806 115.98C142.866 110.433 140.396 103.283 140.396 94.53C140.396 86.1233 142.823 78.93 147.676 72.95C152.529 66.8833 159.636 63.85 168.996 63.85C178.443 63.85 185.549 66.84 190.316 72.82C195.083 78.7133 197.466 85.7767 197.466 94.01ZM187.846 93.88C187.846 87.2933 186.156 81.9633 182.776 77.89C179.483 73.73 174.803 71.65 168.736 71.65C162.669 71.65 157.989 73.7733 154.696 78.02C151.489 82.2667 149.886 87.5967 149.886 94.01C149.886 100.337 151.489 105.667 154.696 110C157.903 114.333 162.583 116.5 168.736 116.5C174.889 116.5 179.613 114.377 182.906 110.13C186.199 105.797 187.846 100.38 187.846 93.88ZM271.266 72.56H261.906V122.22C261.906 131.32 259.393 138.557 254.366 143.93C249.426 149.303 242.45 151.99 233.436 151.99C227.37 151.99 221.91 150.603 217.056 147.83C212.29 145.057 209.126 140.767 207.566 134.96L214.846 131.32C216.32 135.827 218.876 139.077 222.516 141.07C226.156 143.15 229.926 144.19 233.826 144.19C239.373 144.19 243.88 142.24 247.346 138.34C250.9 134.527 252.676 129.023 252.676 121.83V111.17C250.943 114.55 248.43 117.497 245.136 120.01C241.843 122.523 237.466 123.78 232.006 123.78C225.16 123.78 219.31 121.353 214.456 116.5C209.603 111.647 207.176 104.67 207.176 95.57C207.176 87.8567 209.256 80.6633 213.416 73.99C217.576 67.3167 224.12 63.98 233.046 63.98C242.233 63.98 248.776 67.4033 252.676 74.25V65.15H271.266V72.56ZM252.676 98.04V88.03C252.676 83.1767 250.986 79.2767 247.606 76.33C244.313 73.2967 240.283 71.78 235.516 71.78C229.016 71.78 224.293 74.12 221.346 78.8C218.486 83.48 217.056 88.8533 217.056 94.92C217.056 102.027 218.66 107.313 221.866 110.78C225.16 114.247 229.19 115.98 233.956 115.98C239.503 115.98 243.966 114.073 247.346 110.26C250.726 106.447 252.503 102.373 252.676 98.04ZM330.007 106.36C329.227 111.3 326.757 115.547 322.597 119.1C318.437 122.567 312.804 124.3 305.697 124.3C297.55 124.3 290.964 121.743 285.937 116.63C280.91 111.517 278.397 104.28 278.397 94.92C278.397 85.9067 280.78 78.4967 285.547 72.69C290.314 66.8833 296.77 63.98 304.917 63.98C312.89 63.98 318.957 66.4933 323.117 71.52C327.277 76.5467 329.4 82.4833 329.487 89.33C329.487 91.5833 329.227 93.88 328.707 96.22H288.017C288.537 109.74 294.647 116.5 306.347 116.5C310.94 116.5 314.537 115.417 317.137 113.25C319.737 111.083 321.47 108.223 322.337 104.67L330.007 106.36ZM319.867 89.46C320.3 85.1267 319.26 81.0533 316.747 77.24C314.32 73.4267 310.29 71.52 304.657 71.52C299.284 71.52 295.34 73.2967 292.827 76.85C290.314 80.4033 288.754 84.6067 288.147 89.46H319.867ZM407.841 123H378.591V115.59H388.601V88.68C388.601 82.44 387.345 78.0633 384.831 75.55C382.318 72.95 379.111 71.65 375.211 71.65C370.011 71.65 365.808 73.3833 362.601 76.85C359.481 80.23 357.835 84.13 357.661 88.55V115.59H367.801V123H338.421V115.59H348.561V72.56H338.161V65.15H357.661V75.42C361.821 67.7933 368.581 63.98 377.941 63.98C383.575 63.98 388.298 65.7133 392.111 69.18C395.925 72.6467 397.831 78.2367 397.831 85.95V115.59H407.841V123Z" fill="white"/>
<path d="M10.088 138.504C11.112 138.504 11.9227 138.749 12.52 139.24L13.064 142.824L11.24 143.048L10.696 140.616C10.3333 140.488 9.97067 140.424 9.608 140.424C8.776 140.424 8.08267 140.776 7.528 141.48C6.97333 142.163 6.696 143.059 6.696 144.168V151.176H9.992V153H1.96V151.176H4.456V140.584H1.896V138.76H6.568V141.32C6.84533 140.531 7.29333 139.869 7.912 139.336C8.552 138.781 9.27733 138.504 10.088 138.504ZM28.3575 148.904C28.1655 150.12 27.5575 151.165 26.5335 152.04C25.5095 152.893 24.1228 153.32 22.3735 153.32C20.3682 153.32 18.7468 152.691 17.5095 151.432C16.2722 150.173 15.6535 148.392 15.6535 146.088C15.6535 143.869 16.2402 142.045 17.4135 140.616C18.5868 139.187 20.1762 138.472 22.1815 138.472C24.1442 138.472 25.6375 139.091 26.6615 140.328C27.6855 141.565 28.2082 143.027 28.2295 144.712C28.2295 145.267 28.1655 145.832 28.0375 146.408H18.0215C18.1495 149.736 19.6535 151.4 22.5335 151.4C23.6642 151.4 24.5495 151.133 25.1895 150.6C25.8295 150.067 26.2562 149.363 26.4695 148.488L28.3575 148.904ZM25.8615 144.744C25.9682 143.677 25.7122 142.675 25.0935 141.736C24.4962 140.797 23.5042 140.328 22.1175 140.328C20.7948 140.328 19.8242 140.765 19.2055 141.64C18.5868 142.515 18.2028 143.549 18.0535 144.744H25.8615ZM43.1648 148.2C42.9728 149.437 42.4074 150.6 41.4688 151.688C40.5514 152.776 39.1114 153.32 37.1488 153.32C35.1861 153.32 33.6181 152.691 32.4448 151.432C31.2714 150.152 30.6848 148.371 30.6848 146.088C30.6848 144.125 31.2394 142.365 32.3488 140.808C33.4581 139.251 35.1221 138.472 37.3408 138.472C38.2794 138.472 39.1434 138.579 39.9328 138.792C40.7221 139.005 41.4794 139.389 42.2048 139.944L42.7488 143.368L40.8928 143.592L40.3488 141.192C39.4954 140.659 38.4821 140.392 37.3088 140.392C35.7941 140.392 34.7061 140.936 34.0448 142.024C33.3834 143.112 33.0528 144.424 33.0528 145.96C33.0528 147.667 33.4261 149 34.1727 149.96C34.9194 150.92 35.9968 151.4 37.4048 151.4C39.5381 151.4 40.8181 150.195 41.2448 147.784L43.1648 148.2ZM53.338 138.504C54.362 138.504 55.1727 138.749 55.77 139.24L56.314 142.824L54.49 143.048L53.946 140.616C53.5833 140.488 53.2207 140.424 52.858 140.424C52.026 140.424 51.3327 140.776 50.778 141.48C50.2233 142.163 49.946 143.059 49.946 144.168V151.176H53.242V153H45.21V151.176H47.706V140.584H45.146V138.76H49.818V141.32C50.0953 140.531 50.5433 139.869 51.162 139.336C51.802 138.781 52.5273 138.504 53.338 138.504ZM75.1595 153H70.3595V150.312C69.9115 151.208 69.2502 151.933 68.3755 152.488C67.5222 153.043 66.5302 153.32 65.3995 153.32C64.0128 153.32 62.8395 152.893 61.8795 152.04C60.9408 151.165 60.4715 149.779 60.4715 147.88V140.584H57.9755V138.76H62.7115V147.24C62.7115 148.776 63.0315 149.853 63.6715 150.472C64.3115 151.091 65.1328 151.4 66.1355 151.4C67.3515 151.4 68.3435 150.941 69.1115 150.024C69.9008 149.107 70.3168 148.136 70.3595 147.112V140.584H67.3835V138.76H72.5995V151.176H75.1595V153ZM78.985 135.08V132.168H81.417V135.08H78.985ZM83.945 153H76.713V151.176H79.209V140.584H76.649V138.76H81.449V151.176H83.945V153ZM96.3058 149.16C95.9218 151.933 94.4178 153.32 91.7938 153.32C90.3644 153.32 89.2658 152.915 88.4978 152.104C87.7511 151.293 87.3778 150.195 87.3778 148.808V140.552H85.0738V138.76H87.3778V134.184H89.6178V138.76H95.1858V140.552H89.6178V148.52C89.6178 149.373 89.7991 150.067 90.1618 150.6C90.5458 151.112 91.1644 151.368 92.0178 151.368C92.5724 151.368 93.0844 151.197 93.5538 150.856C94.0444 150.515 94.3964 149.768 94.6098 148.616L96.3058 149.16ZM123.797 153H116.981V151.176H119.061V144.552C119.061 143.016 118.751 141.939 118.133 141.32C117.535 140.68 116.767 140.36 115.829 140.36C114.527 140.36 113.525 140.851 112.821 141.832C112.117 142.813 111.754 143.752 111.733 144.648V151.176H114.197V153H107.413V151.176H109.461V144.552C109.461 142.995 109.162 141.907 108.565 141.288C107.967 140.669 107.21 140.36 106.293 140.36C104.97 140.36 103.957 140.84 103.253 141.8C102.57 142.739 102.207 143.667 102.165 144.584V151.176H104.789V153H97.4288V151.176H99.9248V140.584H97.3968V138.76H102.165V141.416C102.634 140.563 103.263 139.859 104.053 139.304C104.842 138.749 105.802 138.472 106.933 138.472C108.042 138.472 109.002 138.749 109.813 139.304C110.645 139.859 111.21 140.723 111.509 141.896C111.935 140.893 112.565 140.072 113.397 139.432C114.25 138.792 115.295 138.472 116.533 138.472C117.898 138.472 119.029 138.899 119.925 139.752C120.842 140.605 121.301 141.981 121.301 143.88V151.176H123.797V153ZM138.014 148.904C137.822 150.12 137.214 151.165 136.19 152.04C135.166 152.893 133.779 153.32 132.03 153.32C130.024 153.32 128.403 152.691 127.166 151.432C125.928 150.173 125.31 148.392 125.31 146.088C125.31 143.869 125.896 142.045 127.07 140.616C128.243 139.187 129.832 138.472 131.838 138.472C133.8 138.472 135.294 139.091 136.318 140.328C137.342 141.565 137.864 143.027 137.886 144.712C137.886 145.267 137.822 145.832 137.694 146.408H127.678C127.806 149.736 129.31 151.4 132.19 151.4C133.32 151.4 134.206 151.133 134.846 150.6C135.486 150.067 135.912 149.363 136.126 148.488L138.014 148.904ZM135.518 144.744C135.624 143.677 135.368 142.675 134.75 141.736C134.152 140.797 133.16 140.328 131.774 140.328C130.451 140.328 129.48 140.765 128.862 141.64C128.243 142.515 127.859 143.549 127.71 144.744H135.518ZM157.173 153H149.973V151.176H152.437V144.552C152.437 143.016 152.128 141.939 151.509 141.32C150.89 140.68 150.101 140.36 149.141 140.36C147.861 140.36 146.826 140.787 146.037 141.64C145.269 142.472 144.864 143.432 144.821 144.52V151.176H147.317V153H140.085V151.176H142.581V140.584H140.021V138.76H144.821V141.288C145.845 139.411 147.509 138.472 149.813 138.472C151.2 138.472 152.362 138.899 153.301 139.752C154.24 140.605 154.709 141.981 154.709 143.88V151.176H157.173V153ZM169.181 149.16C168.797 151.933 167.293 153.32 164.669 153.32C163.239 153.32 162.141 152.915 161.373 152.104C160.626 151.293 160.253 150.195 160.253 148.808V140.552H157.949V138.76H160.253V134.184H162.493V138.76H168.061V140.552H162.493V148.52C162.493 149.373 162.674 150.067 163.037 150.6C163.421 151.112 164.039 151.368 164.893 151.368C165.447 151.368 165.959 151.197 166.429 150.856C166.919 150.515 167.271 149.768 167.485 148.616L169.181 149.16ZM187.762 152.552L177.554 144.392V143.752L187.73 135.432V137.64L180.018 144.04L187.762 150.344V152.552ZM199.737 130.984L192.857 153H190.649L197.529 130.984H199.737ZM277.783 144.392L267.575 152.552V150.344L275.319 144.04L267.607 137.64V135.432L277.783 143.752V144.392ZM298.768 148.872C298.768 150.259 298.181 151.347 297.008 152.136C295.856 152.925 294.427 153.32 292.72 153.32C291.717 153.32 290.715 153.192 289.712 152.936C288.731 152.659 287.931 152.317 287.312 151.912L287.76 148.68L289.552 148.872L289.456 150.76C290.437 151.229 291.493 151.464 292.624 151.464C293.627 151.464 294.512 151.272 295.28 150.888C296.069 150.483 296.464 149.875 296.464 149.064C296.464 148.275 296.165 147.72 295.568 147.4C294.971 147.08 294.224 146.845 293.328 146.696C292.453 146.547 291.568 146.365 290.672 146.152C289.776 145.939 289.029 145.576 288.432 145.064C287.835 144.531 287.536 143.709 287.536 142.6C287.536 141.085 288.091 140.019 289.2 139.4C290.309 138.781 291.515 138.472 292.816 138.472C293.797 138.472 294.715 138.6 295.568 138.856C296.443 139.112 297.179 139.421 297.776 139.784L298.128 143.112L296.272 143.336L295.92 141.032C295.024 140.563 294.053 140.328 293.008 140.328C292.112 140.328 291.376 140.499 290.8 140.84C290.224 141.181 289.936 141.715 289.936 142.44C289.936 143.187 290.235 143.72 290.832 144.04C291.429 144.339 292.165 144.563 293.04 144.712C293.915 144.84 294.789 145.011 295.664 145.224C296.539 145.437 297.275 145.821 297.872 146.376C298.469 146.909 298.768 147.741 298.768 148.872ZM315.263 145.864C315.263 148.019 314.623 149.8 313.343 151.208C312.063 152.616 310.325 153.32 308.127 153.32C305.973 153.32 304.277 152.637 303.039 151.272C301.823 149.907 301.215 148.147 301.215 145.992C301.215 143.923 301.813 142.152 303.007 140.68C304.202 139.187 305.951 138.44 308.255 138.44C310.581 138.44 312.33 139.176 313.503 140.648C314.677 142.099 315.263 143.837 315.263 145.864ZM312.895 145.832C312.895 144.211 312.479 142.899 311.647 141.896C310.837 140.872 309.685 140.36 308.191 140.36C306.698 140.36 305.546 140.883 304.735 141.928C303.946 142.973 303.551 144.285 303.551 145.864C303.551 147.421 303.946 148.733 304.735 149.8C305.525 150.867 306.677 151.4 308.191 151.4C309.706 151.4 310.869 150.877 311.679 149.832C312.49 148.765 312.895 147.432 312.895 145.832ZM324.31 153H317.078V151.176H319.574V132.808H317.046V130.984H321.814V151.176H324.31V153ZM342.41 153H337.61V150.312C337.162 151.208 336.5 151.933 335.626 152.488C334.772 153.043 333.78 153.32 332.65 153.32C331.263 153.32 330.09 152.893 329.13 152.04C328.191 151.165 327.722 149.779 327.722 147.88V140.584H325.226V138.76H329.962V147.24C329.962 148.776 330.282 149.853 330.922 150.472C331.562 151.091 332.383 151.4 333.385 151.4C334.602 151.4 335.594 150.941 336.362 150.024C337.151 149.107 337.567 148.136 337.61 147.112V140.584H334.634V138.76H339.85V151.176H342.41V153ZM354.587 149.16C354.203 151.933 352.699 153.32 350.075 153.32C348.646 153.32 347.547 152.915 346.779 152.104C346.032 151.293 345.659 150.195 345.659 148.808V140.552H343.355V138.76H345.659V134.184H347.899V138.76H353.467V140.552H347.899V148.52C347.899 149.373 348.08 150.067 348.443 150.6C348.827 151.112 349.446 151.368 350.299 151.368C350.854 151.368 351.366 151.197 351.835 150.856C352.326 150.515 352.678 149.768 352.891 148.616L354.587 149.16ZM358.11 135.08V132.168H360.542V135.08H358.11ZM363.07 153H355.838V151.176H358.334V140.584H355.774V138.76H360.574V151.176H363.07V153ZM378.951 145.864C378.951 148.019 378.311 149.8 377.031 151.208C375.751 152.616 374.012 153.32 371.815 153.32C369.66 153.32 367.964 152.637 366.727 151.272C365.511 149.907 364.903 148.147 364.903 145.992C364.903 143.923 365.5 142.152 366.695 140.68C367.889 139.187 369.639 138.44 371.943 138.44C374.268 138.44 376.017 139.176 377.191 140.648C378.364 142.099 378.951 143.837 378.951 145.864ZM376.583 145.832C376.583 144.211 376.167 142.899 375.335 141.896C374.524 140.872 373.372 140.36 371.879 140.36C370.385 140.36 369.233 140.883 368.423 141.928C367.633 142.973 367.239 144.285 367.239 145.864C367.239 147.421 367.633 148.733 368.423 149.8C369.212 150.867 370.364 151.4 371.879 151.4C373.393 151.4 374.556 150.877 375.367 149.832C376.177 148.765 376.583 147.432 376.583 145.832ZM398.173 153H390.973V151.176H393.437V144.552C393.437 143.016 393.128 141.939 392.509 141.32C391.89 140.68 391.101 140.36 390.141 140.36C388.861 140.36 387.826 140.787 387.037 141.64C386.269 142.472 385.864 143.432 385.821 144.52V151.176H388.317V153H381.085V151.176H383.581V140.584H381.021V138.76H385.821V141.288C386.845 139.411 388.509 138.472 390.813 138.472C392.2 138.472 393.362 138.899 394.301 139.752C395.24 140.605 395.709 141.981 395.709 143.88V151.176H398.173V153ZM411.237 148.872C411.237 150.259 410.65 151.347 409.477 152.136C408.325 152.925 406.895 153.32 405.189 153.32C404.186 153.32 403.183 153.192 402.181 152.936C401.199 152.659 400.399 152.317 399.781 151.912L400.229 148.68L402.021 148.872L401.925 150.76C402.906 151.229 403.962 151.464 405.093 151.464C406.095 151.464 406.981 151.272 407.749 150.888C408.538 150.483 408.933 149.875 408.933 149.064C408.933 148.275 408.634 147.72 408.037 147.4C407.439 147.08 406.693 146.845 405.797 146.696C404.922 146.547 404.037 146.365 403.141 146.152C402.245 145.939 401.498 145.576 400.901 145.064C400.303 144.531 400.005 143.709 400.005 142.6C400.005 141.085 400.559 140.019 401.669 139.4C402.778 138.781 403.983 138.472 405.285 138.472C406.266 138.472 407.183 138.6 408.037 138.856C408.911 139.112 409.647 139.421 410.245 139.784L410.597 143.112L408.741 143.336L408.389 141.032C407.493 140.563 406.522 140.328 405.477 140.328C404.581 140.328 403.845 140.499 403.269 140.84C402.693 141.181 402.405 141.715 402.405 142.44C402.405 143.187 402.703 143.72 403.301 144.04C403.898 144.339 404.634 144.563 405.509 144.712C406.383 144.84 407.258 145.011 408.133 145.224C409.007 145.437 409.743 145.821 410.341 146.376C410.938 146.909 411.237 147.741 411.237 148.872Z" fill="white"/>
</svg>
